<svg width="170" height="23" viewBox="0 0 170 23" fill="none" xmlns="http://www.w3.org/2000/svg">
<path d="M4.33807 18H0.383523L6.40909 0.545454H11.1648L17.1818 18H13.2273L8.85511 4.53409H8.71875L4.33807 18ZM4.09091 11.1392H13.4318V14.0199H4.09091V11.1392ZM24.5199 18.2557C23.179 18.2557 22.0256 17.9716 21.0597 17.4034C20.0994 16.8295 19.3608 16.0341 18.8438 15.017C18.3324 14 18.0767 12.8295 18.0767 11.5057C18.0767 10.1648 18.3352 8.98864 18.8523 7.97727C19.375 6.96023 20.1165 6.16761 21.0767 5.59943C22.0369 5.02557 23.179 4.73864 24.5028 4.73864C25.6449 4.73864 26.6449 4.94602 27.5028 5.36079C28.3608 5.77557 29.0398 6.35795 29.5398 7.10795C30.0398 7.85795 30.3153 8.73864 30.3665 9.75H26.9403C26.8438 9.09659 26.5881 8.57102 26.1733 8.1733C25.7642 7.76989 25.2273 7.56818 24.5625 7.56818C24 7.56818 23.5085 7.72159 23.0881 8.02841C22.6733 8.32955 22.3494 8.76989 22.1165 9.34943C21.8835 9.92898 21.767 10.6307 21.767 11.4545C21.767 12.2898 21.8807 13 22.108 13.5852C22.3409 14.1705 22.6676 14.6165 23.0881 14.9233C23.5085 15.2301 24 15.3835 24.5625 15.3835C24.9773 15.3835 25.3494 15.2983 25.679 15.1278C26.0142 14.9574 26.2898 14.7102 26.5057 14.3864C26.7273 14.0568 26.8722 13.6619 26.9403 13.2017H30.3665C30.3097 14.2017 30.0369 15.0824 29.5483 15.8438C29.0653 16.5994 28.3977 17.1903 27.5455 17.6165C26.6932 18.0426 25.6847 18.2557 24.5199 18.2557ZM38.6058 18.2557C37.2649 18.2557 36.1115 17.9716 35.1456 17.4034C34.1854 16.8295 33.4467 16.0341 32.9297 15.017C32.4183 14 32.1626 12.8295 32.1626 11.5057C32.1626 10.1648 32.4212 8.98864 32.9382 7.97727C33.4609 6.96023 34.2024 6.16761 35.1626 5.59943C36.1229 5.02557 37.2649 4.73864 38.5888 4.73864C39.7308 4.73864 40.7308 4.94602 41.5888 5.36079C42.4467 5.77557 43.1257 6.35795 43.6257 7.10795C44.1257 7.85795 44.4013 8.73864 44.4524 9.75H41.0263C40.9297 9.09659 40.674 8.57102 40.2592 8.1733C39.8501 7.76989 39.3132 7.56818 38.6484 7.56818C38.0859 7.56818 37.5945 7.72159 37.174 8.02841C36.7592 8.32955 36.4354 8.76989 36.2024 9.34943C35.9695 9.92898 35.853 10.6307 35.853 11.4545C35.853 12.2898 35.9666 13 36.1939 13.5852C36.4268 14.1705 36.7536 14.6165 37.174 14.9233C37.5945 15.2301 38.0859 15.3835 38.6484 15.3835C39.0632 15.3835 39.4354 15.2983 39.7649 15.1278C40.1001 14.9574 40.3757 14.7102 40.5916 14.3864C40.8132 14.0568 40.9581 13.6619 41.0263 13.2017H44.4524C44.3956 14.2017 44.1229 15.0824 43.6342 15.8438C43.1513 16.5994 42.4837 17.1903 41.6314 17.6165C40.7791 18.0426 39.7706 18.2557 38.6058 18.2557ZM52.7429 18.2557C51.3963 18.2557 50.2372 17.983 49.2656 17.4375C48.2997 16.8864 47.5554 16.108 47.0327 15.1023C46.5099 14.0909 46.2486 12.8949 46.2486 11.5142C46.2486 10.1676 46.5099 8.9858 47.0327 7.96875C47.5554 6.9517 48.2912 6.15909 49.2401 5.59091C50.1946 5.02273 51.3139 4.73864 52.598 4.73864C53.4616 4.73864 54.2656 4.87784 55.0099 5.15625C55.7599 5.42898 56.4134 5.84091 56.9702 6.39205C57.5327 6.94318 57.9702 7.63636 58.2827 8.47159C58.5952 9.30114 58.7514 10.2727 58.7514 11.3864V12.3835H47.6974V10.1335H55.3338C55.3338 9.6108 55.2202 9.14773 54.9929 8.74432C54.7656 8.34091 54.4503 8.02557 54.0469 7.7983C53.6491 7.56534 53.1861 7.44886 52.6577 7.44886C52.1065 7.44886 51.6179 7.5767 51.1918 7.83239C50.7713 8.08239 50.4418 8.42045 50.2031 8.84659C49.9645 9.26705 49.8423 9.7358 49.8366 10.2528V12.392C49.8366 13.0398 49.956 13.5994 50.1946 14.071C50.4389 14.5426 50.7827 14.9062 51.2259 15.1619C51.669 15.4176 52.1946 15.5455 52.8026 15.5455C53.206 15.5455 53.5753 15.4886 53.9105 15.375C54.2457 15.2614 54.5327 15.0909 54.7713 14.8636C55.0099 14.6364 55.1918 14.358 55.3168 14.0284L58.6747 14.25C58.5043 15.0568 58.1548 15.7614 57.6264 16.3636C57.1037 16.9602 56.4276 17.4261 55.598 17.7614C54.7741 18.0909 53.8224 18.2557 52.7429 18.2557ZM72.0128 8.64205L68.6889 8.84659C68.6321 8.5625 68.5099 8.30682 68.3224 8.07955C68.1349 7.84659 67.8878 7.66193 67.581 7.52557C67.2798 7.38352 66.919 7.3125 66.4986 7.3125C65.9361 7.3125 65.4616 7.43182 65.0753 7.67045C64.6889 7.90341 64.4957 8.21591 64.4957 8.60795C64.4957 8.92045 64.6207 9.18466 64.8707 9.40057C65.1207 9.61648 65.5497 9.78977 66.1577 9.92045L68.527 10.3977C69.7997 10.6591 70.7486 11.0795 71.3736 11.6591C71.9986 12.2386 72.3111 13 72.3111 13.9432C72.3111 14.8011 72.0582 15.554 71.5526 16.2017C71.0526 16.8494 70.3651 17.3551 69.4901 17.7188C68.6207 18.0767 67.6179 18.2557 66.4815 18.2557C64.7486 18.2557 63.3679 17.8949 62.3395 17.1733C61.3168 16.446 60.7173 15.4574 60.5412 14.2074L64.1122 14.0199C64.2202 14.5483 64.4815 14.9517 64.8963 15.2301C65.3111 15.5028 65.8423 15.6392 66.4901 15.6392C67.1264 15.6392 67.6378 15.517 68.0241 15.2727C68.4162 15.0227 68.6151 14.7017 68.6207 14.3097C68.6151 13.9801 68.4759 13.7102 68.2031 13.5C67.9304 13.2841 67.5099 13.1193 66.9418 13.0057L64.6747 12.554C63.3963 12.2983 62.4446 11.8551 61.8196 11.2244C61.2003 10.5937 60.8906 9.78977 60.8906 8.8125C60.8906 7.97159 61.1179 7.24716 61.5724 6.6392C62.0327 6.03125 62.6776 5.5625 63.5071 5.23295C64.3423 4.90341 65.3196 4.73864 66.4389 4.73864C68.0923 4.73864 69.3935 5.08807 70.3423 5.78693C71.2969 6.4858 71.8537 7.4375 72.0128 8.64205ZM85.4893 8.64205L82.1655 8.84659C82.1087 8.5625 81.9865 8.30682 81.799 8.07955C81.6115 7.84659 81.3643 7.66193 81.0575 7.52557C80.7564 7.38352 80.3956 7.3125 79.9751 7.3125C79.4126 7.3125 78.9382 7.43182 78.5518 7.67045C78.1655 7.90341 77.9723 8.21591 77.9723 8.60795C77.9723 8.92045 78.0973 9.18466 78.3473 9.40057C78.5973 9.61648 79.0263 9.78977 79.6342 9.92045L82.0036 10.3977C83.2763 10.6591 84.2251 11.0795 84.8501 11.6591C85.4751 12.2386 85.7876 13 85.7876 13.9432C85.7876 14.8011 85.5348 15.554 85.0291 16.2017C84.5291 16.8494 83.8416 17.3551 82.9666 17.7188C82.0973 18.0767 81.0945 18.2557 79.9581 18.2557C78.2251 18.2557 76.8445 17.8949 75.8161 17.1733C74.7933 16.446 74.1939 15.4574 74.0178 14.2074L77.5888 14.0199C77.6967 14.5483 77.9581 14.9517 78.3729 15.2301C78.7876 15.5028 79.3189 15.6392 79.9666 15.6392C80.603 15.6392 81.1143 15.517 81.5007 15.2727C81.8928 15.0227 82.0916 14.7017 82.0973 14.3097C82.0916 13.9801 81.9524 13.7102 81.6797 13.5C81.407 13.2841 80.9865 13.1193 80.4183 13.0057L78.1513 12.554C76.8729 12.2983 75.9212 11.8551 75.2962 11.2244C74.6768 10.5937 74.3672 9.78977 74.3672 8.8125C74.3672 7.97159 74.5945 7.24716 75.049 6.6392C75.5092 6.03125 76.1541 5.5625 76.9837 5.23295C77.8189 4.90341 78.7962 4.73864 79.9155 4.73864C81.5689 4.73864 82.87 5.08807 83.8189 5.78693C84.7734 6.4858 85.3303 7.4375 85.4893 8.64205ZM97.6108 5.56534C97.5426 4.87784 97.25 4.34375 96.733 3.96307C96.2159 3.58239 95.5142 3.39204 94.6278 3.39204C94.0256 3.39204 93.517 3.47727 93.1023 3.64773C92.6875 3.8125 92.3693 4.04261 92.1477 4.33807C91.9318 4.63352 91.8239 4.96875 91.8239 5.34375C91.8125 5.65625 91.8778 5.92898 92.0199 6.16193C92.1676 6.39489 92.3693 6.59659 92.625 6.76705C92.8807 6.93182 93.1761 7.0767 93.5114 7.2017C93.8466 7.32102 94.2045 7.4233 94.5852 7.50852L96.1534 7.88352C96.9148 8.05398 97.6136 8.28125 98.25 8.56534C98.8864 8.84943 99.4375 9.19886 99.9034 9.61364C100.369 10.0284 100.73 10.517 100.986 11.0795C101.247 11.642 101.381 12.2869 101.386 13.0142C101.381 14.0824 101.108 15.0085 100.568 15.7926C100.034 16.571 99.2614 17.1761 98.25 17.608C97.2443 18.0341 96.0313 18.2472 94.6108 18.2472C93.2017 18.2472 91.9744 18.0312 90.929 17.5994C89.8892 17.1676 89.0767 16.5284 88.4915 15.6818C87.9119 14.8295 87.608 13.7756 87.5795 12.5199H91.1506C91.1903 13.1051 91.358 13.5937 91.6534 13.9858C91.9545 14.3722 92.3551 14.6648 92.8551 14.8636C93.3608 15.0568 93.9318 15.1534 94.5682 15.1534C95.1932 15.1534 95.7358 15.0625 96.196 14.8807C96.6619 14.6989 97.0227 14.446 97.2784 14.1222C97.5341 13.7983 97.6619 13.4261 97.6619 13.0057C97.6619 12.6136 97.5455 12.2841 97.3125 12.017C97.0852 11.75 96.75 11.5227 96.3068 11.3352C95.8693 11.1477 95.3324 10.9773 94.696 10.8239L92.7955 10.3466C91.3239 9.98864 90.1619 9.42898 89.3097 8.66761C88.4574 7.90625 88.0341 6.88068 88.0398 5.59091C88.0341 4.53409 88.3153 3.6108 88.8835 2.82102C89.4574 2.03125 90.2443 1.41477 91.2443 0.971591C92.2443 0.528409 93.3807 0.306818 94.6534 0.306818C95.9489 0.306818 97.0795 0.528409 98.0455 0.971591C99.017 1.41477 99.7727 2.03125 100.312 2.82102C100.852 3.6108 101.131 4.52557 101.148 5.56534H97.6108ZM103.8 22.9091V4.90909H107.38V7.10795H107.542C107.701 6.75568 107.931 6.39773 108.232 6.03409C108.539 5.66477 108.937 5.35795 109.425 5.11364C109.92 4.86364 110.533 4.73864 111.266 4.73864C112.221 4.73864 113.102 4.98864 113.908 5.48864C114.715 5.98295 115.36 6.73011 115.843 7.73011C116.326 8.72443 116.567 9.97159 116.567 11.4716C116.567 12.9318 116.332 14.1648 115.86 15.1705C115.394 16.1705 114.758 16.929 113.951 17.446C113.15 17.9574 112.252 18.2131 111.258 18.2131C110.553 18.2131 109.954 18.0966 109.46 17.8636C108.971 17.6307 108.57 17.3381 108.258 16.9858C107.945 16.6278 107.707 16.267 107.542 15.9034H107.431V22.9091H103.8ZM107.354 11.4545C107.354 12.233 107.462 12.9119 107.678 13.4915C107.894 14.071 108.207 14.5227 108.616 14.8466C109.025 15.1648 109.522 15.3239 110.107 15.3239C110.698 15.3239 111.198 15.1619 111.607 14.8381C112.016 14.5085 112.326 14.054 112.536 13.4744C112.752 12.8892 112.86 12.2159 112.86 11.4545C112.86 10.6989 112.755 10.0341 112.545 9.46023C112.335 8.88636 112.025 8.4375 111.616 8.11364C111.207 7.78977 110.704 7.62784 110.107 7.62784C109.516 7.62784 109.016 7.78409 108.607 8.09659C108.204 8.40909 107.894 8.85227 107.678 9.42614C107.462 10 107.354 10.6761 107.354 11.4545ZM122.619 10.4318V18H118.988V0.545454H122.516V7.21875H122.67C122.965 6.44602 123.442 5.84091 124.102 5.40341C124.761 4.96023 125.587 4.73864 126.582 4.73864C127.491 4.73864 128.283 4.9375 128.96 5.33523C129.641 5.72727 130.17 6.29261 130.545 7.03125C130.925 7.7642 131.113 8.64205 131.107 9.66477V18H127.477V10.3125C127.482 9.50568 127.278 8.87784 126.863 8.42898C126.454 7.98011 125.88 7.75568 125.141 7.75568C124.647 7.75568 124.21 7.8608 123.829 8.07102C123.454 8.28125 123.158 8.58807 122.942 8.99148C122.732 9.3892 122.624 9.86932 122.619 10.4318ZM139.93 18.2557C138.584 18.2557 137.425 17.983 136.453 17.4375C135.487 16.8864 134.743 16.108 134.22 15.1023C133.697 14.0909 133.436 12.8949 133.436 11.5142C133.436 10.1676 133.697 8.9858 134.22 7.96875C134.743 6.9517 135.479 6.15909 136.428 5.59091C137.382 5.02273 138.501 4.73864 139.786 4.73864C140.649 4.73864 141.453 4.87784 142.197 5.15625C142.947 5.42898 143.601 5.84091 144.158 6.39205C144.72 6.94318 145.158 7.63636 145.47 8.47159C145.783 9.30114 145.939 10.2727 145.939 11.3864V12.3835H134.885V10.1335H142.521C142.521 9.6108 142.408 9.14773 142.18 8.74432C141.953 8.34091 141.638 8.02557 141.234 7.7983C140.837 7.56534 140.374 7.44886 139.845 7.44886C139.294 7.44886 138.805 7.5767 138.379 7.83239C137.959 8.08239 137.629 8.42045 137.391 8.84659C137.152 9.26705 137.03 9.7358 137.024 10.2528V12.392C137.024 13.0398 137.143 13.5994 137.382 14.071C137.626 14.5426 137.97 14.9062 138.413 15.1619C138.857 15.4176 139.382 15.5455 139.99 15.5455C140.393 15.5455 140.763 15.4886 141.098 15.375C141.433 15.2614 141.72 15.0909 141.959 14.8636C142.197 14.6364 142.379 14.358 142.504 14.0284L145.862 14.25C145.692 15.0568 145.342 15.7614 144.814 16.3636C144.291 16.9602 143.615 17.4261 142.786 17.7614C141.962 18.0909 141.01 18.2557 139.93 18.2557ZM148.308 18V4.90909H151.828V7.19318H151.964C152.203 6.38068 152.604 5.76705 153.166 5.35227C153.729 4.93182 154.376 4.72159 155.109 4.72159C155.291 4.72159 155.487 4.73295 155.697 4.75568C155.908 4.77841 156.092 4.80966 156.251 4.84943V8.07102C156.081 8.01989 155.845 7.97443 155.544 7.93466C155.243 7.89489 154.967 7.875 154.717 7.875C154.183 7.875 153.706 7.99148 153.286 8.22443C152.871 8.4517 152.541 8.76989 152.297 9.17898C152.058 9.58807 151.939 10.0597 151.939 10.5938V18H148.308ZM163.485 18.2557C162.138 18.2557 160.979 17.983 160.008 17.4375C159.042 16.8864 158.298 16.108 157.775 15.1023C157.252 14.0909 156.991 12.8949 156.991 11.5142C156.991 10.1676 157.252 8.9858 157.775 7.96875C158.298 6.9517 159.033 6.15909 159.982 5.59091C160.937 5.02273 162.056 4.73864 163.34 4.73864C164.204 4.73864 165.008 4.87784 165.752 5.15625C166.502 5.42898 167.156 5.84091 167.712 6.39205C168.275 6.94318 168.712 7.63636 169.025 8.47159C169.337 9.30114 169.494 10.2727 169.494 11.3864V12.3835H158.44V10.1335H166.076C166.076 9.6108 165.962 9.14773 165.735 8.74432C165.508 8.34091 165.192 8.02557 164.789 7.7983C164.391 7.56534 163.928 7.44886 163.4 7.44886C162.849 7.44886 162.36 7.5767 161.934 7.83239C161.513 8.08239 161.184 8.42045 160.945 8.84659C160.707 9.26705 160.585 9.7358 160.579 10.2528V12.392C160.579 13.0398 160.698 13.5994 160.937 14.071C161.181 14.5426 161.525 14.9062 161.968 15.1619C162.411 15.4176 162.937 15.5455 163.545 15.5455C163.948 15.5455 164.317 15.4886 164.653 15.375C164.988 15.2614 165.275 15.0909 165.513 14.8636C165.752 14.6364 165.934 14.358 166.059 14.0284L169.417 14.25C169.246 15.0568 168.897 15.7614 168.369 16.3636C167.846 16.9602 167.17 17.4261 166.34 17.7614C165.516 18.0909 164.565 18.2557 163.485 18.2557Z" fill="#003153"/>
</svg>
