<svg width="29" height="30" viewBox="0 0 29 30" fill="none" xmlns="http://www.w3.org/2000/svg">
<path d="M14.8125 0C15.0821 0 15.3516 0.0585938 15.5977 0.169922L26.6309 4.85156C27.9199 5.39648 28.8809 6.66797 28.875 8.20312C28.8457 14.0156 26.4551 24.6504 16.3594 29.4844C15.3809 29.9531 14.2442 29.9531 13.2657 29.4844C3.16995 24.6504 0.779324 14.0156 0.750027 8.20312C0.744167 6.66797 1.7051 5.39648 2.99417 4.85156L14.0332 0.169922C14.2735 0.0585938 14.543 0 14.8125 0ZM14.8125 3.91406V26.0625C22.8985 22.1484 25.0723 13.4824 25.125 8.28516L14.8125 3.91406Z" fill="#003153"/>
</svg>
