<svg width="40" height="40" viewBox="0 0 40 40" fill="none" xmlns="http://www.w3.org/2000/svg">
<path d="M20 0C31.0457 0 40 8.95431 40 20C40 31.0457 31.0457 40 20 40C8.95431 40 0 31.0457 0 20C0 8.95431 8.95431 0 20 0Z" fill="#D1FAE5"/>
<path d="M20 0C31.0457 0 40 8.95431 40 20C40 31.0457 31.0457 40 20 40C8.95431 40 0 31.0457 0 20C0 8.95431 8.95431 0 20 0Z" stroke="#E5E7EB"/>
<path d="M32.5 30H7.5V10H32.5V30Z" stroke="#E5E7EB"/>
<g clip-path="url(#clip0_119_434)">
<path d="M14.5473 17.9298C14.5192 18.8146 14.9614 19.2064 14.9723 19.4552C14.9671 19.5059 14.9499 19.5545 14.922 19.5972C14.8942 19.6398 14.8565 19.6751 14.8122 19.7002L14.3122 20.0502C14.2475 20.0955 14.1712 20.1215 14.0923 20.1252C14.0755 20.1244 13.7723 20.1966 13.2923 19.1248C12.9994 19.4904 12.6267 19.7841 12.2028 19.9835C11.7789 20.1829 11.315 20.2827 10.8466 20.2752C10.2106 20.3099 8.48719 19.9142 8.57586 18.0795C8.51375 16.5841 9.90633 15.6552 11.3466 15.7338C11.6239 15.7345 12.1903 15.7482 13.1821 15.9787V15.3685C13.2872 14.3349 12.6079 13.533 11.4317 13.6533C11.338 13.6537 10.6739 13.6338 9.64109 14.0482C9.35359 14.1802 9.31688 14.1584 9.22117 14.1584C8.93172 14.1584 9.05086 13.3193 9.10633 13.213C9.30984 12.963 10.5071 12.4963 11.6821 12.5029C12.4678 12.4334 13.2492 12.6759 13.8575 13.1779C14.1048 13.4545 14.2934 13.7783 14.4121 14.1299C14.5307 14.4814 14.5769 14.8533 14.5477 15.2232L14.5473 17.9298ZM11.1716 19.1951C12.4384 19.1767 12.9747 18.415 13.097 18.0048C13.193 17.6123 13.177 17.3638 13.177 16.9345C12.7993 16.8439 12.2555 16.7451 11.6317 16.7443C11.0399 16.6998 9.95906 16.9642 10.0013 18.0045C9.95281 18.6603 10.4356 19.231 11.1716 19.1951ZM17.8481 20.0955C17.5411 20.1236 17.3981 19.9056 17.3528 19.6904L15.4075 13.2588C15.3696 13.1502 15.3446 13.038 15.3325 12.9236C15.3253 12.8764 15.3372 12.8283 15.3654 12.7898C15.3937 12.7514 15.4361 12.7257 15.4833 12.7185C15.4927 12.717 15.4001 12.7185 16.3524 12.7185C16.6954 12.6841 16.8071 12.9541 16.8427 13.1236L18.238 18.6248L19.5333 13.1236C19.554 12.9978 19.6481 12.6912 20.0333 12.7236H20.7036C20.7884 12.7166 21.1376 12.7041 21.1989 13.1287L22.5044 18.7002L23.9446 13.1287C23.9634 13.0435 24.0509 12.6845 24.4399 12.7236H25.2102C25.2434 12.7185 25.4505 12.692 25.4153 13.0588C25.3985 13.131 25.5485 12.6423 23.3548 19.6955C23.3098 19.9107 23.1665 20.1287 22.8595 20.1005H22.1294C21.702 20.1455 21.6407 19.7232 21.6341 19.6806L20.3388 14.324L19.0583 19.6752C19.052 19.7177 18.9907 20.14 18.563 20.0951H17.8481V20.0955ZM28.5309 20.3154C28.3013 20.3158 27.2059 20.3037 26.2903 19.8353C26.1991 19.7967 26.1214 19.7319 26.0671 19.649C26.0128 19.5662 25.9843 19.4691 25.9852 19.3701V18.9502C25.9852 18.6201 26.2274 18.6806 26.3302 18.7201C26.7223 18.8787 26.9739 18.999 27.4555 19.0951C28.8872 19.3892 29.5169 19.0052 29.6712 18.9201C30.1848 18.615 30.2255 17.917 29.8763 17.5548C29.4669 17.2115 29.2716 17.1986 27.8009 16.7345C27.6196 16.6841 26.0938 16.2029 26.0903 14.6892C26.0665 13.5861 27.0688 12.4947 28.8059 12.5037C29.3009 12.5033 30.6196 12.665 30.9766 13.1138C31.0294 13.1955 31.0555 13.2916 31.0516 13.3888V13.7838C31.0516 13.9572 30.9884 14.0439 30.8614 14.0439C30.5602 14.0103 30.0259 13.6076 28.9411 13.624C28.672 13.6099 27.3829 13.6595 27.4407 14.5994C27.4239 15.34 28.4802 15.6177 28.6009 15.6498C30.0251 16.0783 30.5012 16.1494 31.0665 16.8052C31.736 17.6744 31.3751 18.692 31.2364 18.9709C30.4911 20.4353 28.5638 20.3162 28.5309 20.3154ZM30.1013 24.4115C27.3657 26.4318 23.3946 27.5072 20.004 27.5072C15.429 27.5374 11.0082 25.8551 7.61063 22.7912C7.35555 22.5611 7.58055 22.2459 7.8907 22.4213C11.6596 24.5772 15.9268 25.71 20.2688 25.7072C23.5113 25.6898 26.7184 25.032 29.7059 23.7716C30.1661 23.5763 30.5563 24.0763 30.1013 24.4115ZM31.2415 23.1111C30.8915 22.6611 28.9259 22.9009 28.0458 23.006C27.7805 23.0361 27.7356 22.806 27.9759 22.6361C29.5411 21.5357 32.1118 21.8509 32.4071 22.2209C32.702 22.5908 32.327 25.1666 30.8618 26.397C30.6368 26.5873 30.4216 26.4869 30.5216 26.2369C30.8512 25.4068 31.5915 23.5615 31.2415 23.1111Z" fill="#059669"/>
</g>
<defs>
<clipPath id="clip0_119_434">
<path d="M7.5 10H32.5V30H7.5V10Z" fill="white"/>
</clipPath>
</defs>
</svg>
