<svg width="60" height="60" viewBox="0 0 60 60" fill="none" xmlns="http://www.w3.org/2000/svg">
<g clip-path="url(#clip0_119_423)">
<g clip-path="url(#clip1_119_423)">
<path d="M18.3398 52.4648L16.8633 55.9219C14.6719 54.8086 12.6562 53.4375 10.8281 51.832L13.4883 49.1719C14.9531 50.4492 16.582 51.5625 18.3398 52.4648ZM4.75781 31.875H0.996094C1.16016 34.3594 1.62891 36.7617 2.36719 39.0352L5.85938 37.6406C5.28516 35.8008 4.89844 33.8672 4.75781 31.875ZM4.75781 28.125C4.92187 25.9219 5.36719 23.7891 6.05859 21.7852L2.60156 20.3086C1.72266 22.7695 1.17188 25.3945 0.996094 28.125H4.75781ZM7.53516 18.3398C8.44922 16.5938 9.55078 14.9648 10.8281 13.4766L8.16797 10.8164C6.5625 12.6445 5.17969 14.6602 4.07812 16.8516L7.53516 18.3398ZM46.5234 49.1719C44.8945 50.5781 43.0781 51.7852 41.1211 52.7344L42.5156 56.2266C44.9414 55.0664 47.1797 53.5781 49.1836 51.8203L46.5234 49.1719ZM13.4766 10.8281C15.1055 9.42188 16.9219 8.21484 18.8789 7.26562L17.4844 3.77344C15.0586 4.93359 12.8203 6.42188 10.8281 8.17969L13.4766 10.8281ZM52.4648 41.6602C51.5508 43.4062 50.4492 45.0352 49.1719 46.5234L51.832 49.1836C53.4375 47.3555 54.8203 45.3281 55.9219 43.1484L52.4648 41.6602ZM55.2422 31.875C55.0781 34.0781 54.6328 36.2109 53.9414 38.2148L57.3984 39.6914C58.2773 37.2188 58.8281 34.5938 58.9922 31.8633H55.2422V31.875ZM37.6406 54.1406C35.8008 54.7266 33.8672 55.1016 31.875 55.2422V59.0039C34.3594 58.8398 36.7617 58.3711 39.0352 57.6328L37.6406 54.1406ZM28.125 55.2422C25.9219 55.0781 23.7891 54.6328 21.7852 53.9414L20.3086 57.3984C22.7812 58.2773 25.4062 58.8281 28.1367 58.9922V55.2422H28.125ZM54.1406 22.3594C54.7266 24.1992 55.1016 26.1328 55.2422 28.125H59.0039C58.8398 25.6406 58.3711 23.2383 57.6328 20.9648L54.1406 22.3594ZM10.8281 46.5234C9.42188 44.8945 8.21484 43.0781 7.26562 41.1211L3.77344 42.5156C4.93359 44.9414 6.42188 47.1797 8.17969 49.1836L10.8281 46.5234ZM31.875 4.75781C34.0781 4.92187 36.1992 5.36719 38.2148 6.05859L39.6914 2.60156C37.2305 1.72266 34.6055 1.17188 31.875 0.996094V4.75781ZM22.3594 5.85938C24.1992 5.27344 26.1328 4.89844 28.125 4.75781V0.996094C25.6406 1.16016 23.2383 1.62891 20.9648 2.36719L22.3594 5.85938ZM51.832 10.8164L49.1719 13.4766C50.5781 15.1055 51.7852 16.9219 52.7461 18.8789L56.2383 17.4844C55.0781 15.0586 53.5898 12.8203 51.832 10.8164ZM46.5234 10.8281L49.1836 8.16797C47.3555 6.5625 45.3398 5.17969 43.1484 4.07812L41.6719 7.53516C43.4062 8.44922 45.0469 9.55078 46.5234 10.8281Z" fill="#003153"/>
<path d="M30 45.9375C31.8122 45.9375 33.2812 44.4684 33.2812 42.6562C33.2812 40.8441 31.8122 39.375 30 39.375C28.1878 39.375 26.7188 40.8441 26.7188 42.6562C26.7188 44.4684 28.1878 45.9375 30 45.9375Z" fill="#003153"/>
<path d="M30.903 36.5625H29.028C28.2545 36.5625 27.6217 35.9297 27.6217 35.1562C27.6217 26.8359 36.692 27.668 36.692 22.5234C36.692 20.1797 34.6061 17.8125 29.9655 17.8125C26.5553 17.8125 24.7741 18.9375 23.028 21.1758C22.5709 21.7617 21.7272 21.8789 21.1295 21.457L19.5944 20.3789C18.9381 19.9219 18.7858 18.9961 19.2897 18.3633C21.7741 15.1758 24.7272 13.125 29.9772 13.125C36.1061 13.125 41.3912 16.6172 41.3912 22.5234C41.3912 30.4453 32.3209 29.9648 32.3209 35.1562C32.3092 35.9297 31.6764 36.5625 30.903 36.5625Z" fill="#003153"/>
</g>
</g>
<defs>
<clipPath id="clip0_119_423">
<rect width="60" height="60" fill="white"/>
</clipPath>
<clipPath id="clip1_119_423">
<path d="M0 0H60V60H0V0Z" fill="white"/>
</clipPath>
</defs>
</svg>
